<mxfile host="app.diagrams.net" agent="Mozilla/5.0 (Windows NT 10.0; Win64; x64) AppleWebKit/537.36 (KHTML, like Gecko) Chrome/131.0.0.0 Safari/537.36" version="25.0.3">
  <diagram name="PÃ¡gina-1" id="U6rAgnEGUWr6FVdCBFBB">
    <mxGraphModel dx="1093" dy="927" grid="1" gridSize="10" guides="1" tooltips="1" connect="1" arrows="1" fold="1" page="1" pageScale="1" pageWidth="827" pageHeight="1169" math="0" shadow="0">
      <root>
        <mxCell id="0" />
        <mxCell id="1" parent="0" />
        <mxCell id="E2-PqrP5FAS56MEpSENr-1" value="Libros" style="whiteSpace=wrap;html=1;align=center;fontSize=19;" vertex="1" parent="1">
          <mxGeometry x="310" y="430" width="140" height="60" as="geometry" />
        </mxCell>
        <mxCell id="E2-PqrP5FAS56MEpSENr-3" value="Titulo&amp;nbsp;" style="ellipse;whiteSpace=wrap;html=1;align=center;fontSize=19;" vertex="1" parent="1">
          <mxGeometry x="180" y="610" width="130" height="50" as="geometry" />
        </mxCell>
        <mxCell id="E2-PqrP5FAS56MEpSENr-5" value="fechaPublicacion" style="ellipse;whiteSpace=wrap;html=1;align=center;fontSize=19;" vertex="1" parent="1">
          <mxGeometry x="290" y="230" width="160" height="80" as="geometry" />
        </mxCell>
        <mxCell id="E2-PqrP5FAS56MEpSENr-8" value="&lt;span style=&quot;font-size: 19px;&quot;&gt;ISBN&lt;/span&gt;" style="ellipse;whiteSpace=wrap;html=1;align=center;fontStyle=4;" vertex="1" parent="1">
          <mxGeometry x="70" y="330" width="160" height="50" as="geometry" />
        </mxCell>
        <mxCell id="E2-PqrP5FAS56MEpSENr-13" value="" style="endArrow=none;html=1;rounded=0;exitX=0.925;exitY=0.78;exitDx=0;exitDy=0;exitPerimeter=0;entryX=0;entryY=0;entryDx=0;entryDy=0;" edge="1" parent="1" source="E2-PqrP5FAS56MEpSENr-8" target="E2-PqrP5FAS56MEpSENr-1">
          <mxGeometry relative="1" as="geometry">
            <mxPoint x="300" y="500" as="sourcePoint" />
            <mxPoint x="460" y="500" as="targetPoint" />
          </mxGeometry>
        </mxCell>
        <mxCell id="E2-PqrP5FAS56MEpSENr-15" value="" style="endArrow=none;html=1;rounded=0;exitX=0.457;exitY=1.033;exitDx=0;exitDy=0;exitPerimeter=0;entryX=0.427;entryY=0;entryDx=0;entryDy=0;entryPerimeter=0;" edge="1" parent="1" source="E2-PqrP5FAS56MEpSENr-1" target="E2-PqrP5FAS56MEpSENr-3">
          <mxGeometry relative="1" as="geometry">
            <mxPoint x="380" y="615" as="sourcePoint" />
            <mxPoint x="540" y="615" as="targetPoint" />
          </mxGeometry>
        </mxCell>
        <mxCell id="E2-PqrP5FAS56MEpSENr-17" value="" style="endArrow=none;html=1;rounded=0;exitX=0.436;exitY=-0.017;exitDx=0;exitDy=0;exitPerimeter=0;entryX=0.5;entryY=1;entryDx=0;entryDy=0;" edge="1" parent="1" source="E2-PqrP5FAS56MEpSENr-1" target="E2-PqrP5FAS56MEpSENr-5">
          <mxGeometry relative="1" as="geometry">
            <mxPoint x="414" y="360" as="sourcePoint" />
            <mxPoint x="574" y="360" as="targetPoint" />
          </mxGeometry>
        </mxCell>
        <mxCell id="E2-PqrP5FAS56MEpSENr-18" value="&lt;font style=&quot;font-size: 19px;&quot;&gt;Autores&lt;/font&gt;" style="whiteSpace=wrap;html=1;align=center;" vertex="1" parent="1">
          <mxGeometry x="710" y="430" width="140" height="60" as="geometry" />
        </mxCell>
        <mxCell id="E2-PqrP5FAS56MEpSENr-19" value="codAutor" style="ellipse;whiteSpace=wrap;html=1;align=center;fontStyle=4;fontSize=19;" vertex="1" parent="1">
          <mxGeometry x="850" y="235" width="150" height="70" as="geometry" />
        </mxCell>
        <mxCell id="E2-PqrP5FAS56MEpSENr-20" value="nombre" style="ellipse;whiteSpace=wrap;html=1;align=center;fontSize=19;" vertex="1" parent="1">
          <mxGeometry x="620" y="650" width="150" height="70" as="geometry" />
        </mxCell>
        <mxCell id="E2-PqrP5FAS56MEpSENr-21" value="fechaMuerte" style="ellipse;whiteSpace=wrap;html=1;align=center;fontSize=19;" vertex="1" parent="1">
          <mxGeometry x="990" y="515" width="140" height="70" as="geometry" />
        </mxCell>
        <mxCell id="E2-PqrP5FAS56MEpSENr-22" value="fechaNac" style="ellipse;whiteSpace=wrap;html=1;align=center;fontSize=19;" vertex="1" parent="1">
          <mxGeometry x="980" y="315" width="140" height="80" as="geometry" />
        </mxCell>
        <mxCell id="E2-PqrP5FAS56MEpSENr-23" value="apellidos" style="ellipse;whiteSpace=wrap;html=1;align=center;fontSize=19;" vertex="1" parent="1">
          <mxGeometry x="900" y="660" width="150" height="65" as="geometry" />
        </mxCell>
        <mxCell id="E2-PqrP5FAS56MEpSENr-24" value="" style="endArrow=none;html=1;rounded=0;exitX=0.371;exitY=0.033;exitDx=0;exitDy=0;exitPerimeter=0;entryX=0.5;entryY=1;entryDx=0;entryDy=0;" edge="1" parent="1" source="E2-PqrP5FAS56MEpSENr-18" target="E2-PqrP5FAS56MEpSENr-19">
          <mxGeometry relative="1" as="geometry">
            <mxPoint x="770" y="500" as="sourcePoint" />
            <mxPoint x="930" y="500" as="targetPoint" />
          </mxGeometry>
        </mxCell>
        <mxCell id="E2-PqrP5FAS56MEpSENr-27" value="" style="endArrow=none;html=1;rounded=0;exitX=0.433;exitY=-0.014;exitDx=0;exitDy=0;exitPerimeter=0;" edge="1" parent="1" source="E2-PqrP5FAS56MEpSENr-20">
          <mxGeometry relative="1" as="geometry">
            <mxPoint x="667" y="584" as="sourcePoint" />
            <mxPoint x="740" y="493" as="targetPoint" />
            <Array as="points" />
          </mxGeometry>
        </mxCell>
        <mxCell id="E2-PqrP5FAS56MEpSENr-29" value="" style="endArrow=none;html=1;rounded=0;entryX=0.333;entryY=0.015;entryDx=0;entryDy=0;entryPerimeter=0;exitX=0.65;exitY=0.983;exitDx=0;exitDy=0;exitPerimeter=0;" edge="1" parent="1" source="E2-PqrP5FAS56MEpSENr-18" target="E2-PqrP5FAS56MEpSENr-23">
          <mxGeometry relative="1" as="geometry">
            <mxPoint x="770" y="614.5" as="sourcePoint" />
            <mxPoint x="930" y="614.5" as="targetPoint" />
            <Array as="points" />
          </mxGeometry>
        </mxCell>
        <mxCell id="E2-PqrP5FAS56MEpSENr-31" value="" style="endArrow=none;html=1;rounded=0;entryX=1;entryY=0;entryDx=0;entryDy=0;exitX=0.043;exitY=0.763;exitDx=0;exitDy=0;exitPerimeter=0;" edge="1" parent="1" source="E2-PqrP5FAS56MEpSENr-22" target="E2-PqrP5FAS56MEpSENr-18">
          <mxGeometry relative="1" as="geometry">
            <mxPoint x="986" y="376" as="sourcePoint" />
            <mxPoint x="850" y="430" as="targetPoint" />
            <Array as="points" />
          </mxGeometry>
        </mxCell>
        <mxCell id="E2-PqrP5FAS56MEpSENr-33" value="" style="endArrow=none;html=1;rounded=0;exitX=1;exitY=1;exitDx=0;exitDy=0;" edge="1" parent="1" source="E2-PqrP5FAS56MEpSENr-18" target="E2-PqrP5FAS56MEpSENr-21">
          <mxGeometry relative="1" as="geometry">
            <mxPoint x="770" y="500" as="sourcePoint" />
            <mxPoint x="930" y="500" as="targetPoint" />
          </mxGeometry>
        </mxCell>
        <mxCell id="E2-PqrP5FAS56MEpSENr-34" value="&lt;div&gt;&lt;font style=&quot;font-size: 19px;&quot;&gt;tienen&lt;/font&gt;&lt;/div&gt;" style="shape=rhombus;perimeter=rhombusPerimeter;whiteSpace=wrap;html=1;align=center;" vertex="1" parent="1">
          <mxGeometry x="670" y="100" width="140" height="80" as="geometry" />
        </mxCell>
        <mxCell id="E2-PqrP5FAS56MEpSENr-36" value="&lt;font style=&quot;font-size: 19px;&quot;&gt;Nacionalidad&lt;/font&gt;" style="shape=ext;margin=3;double=1;whiteSpace=wrap;html=1;align=center;" vertex="1" parent="1">
          <mxGeometry x="1000" y="110" width="170" height="40" as="geometry" />
        </mxCell>
        <mxCell id="E2-PqrP5FAS56MEpSENr-37" value="codNacionalidad" style="ellipse;whiteSpace=wrap;html=1;align=center;fontStyle=4;fontSize=19;" vertex="1" parent="1">
          <mxGeometry x="1140" y="20" width="160" height="60" as="geometry" />
        </mxCell>
        <mxCell id="E2-PqrP5FAS56MEpSENr-38" value="Nacionalidad" style="ellipse;whiteSpace=wrap;html=1;align=center;fontSize=19;" vertex="1" parent="1">
          <mxGeometry x="1170" y="180" width="140" height="60" as="geometry" />
        </mxCell>
        <mxCell id="E2-PqrP5FAS56MEpSENr-39" value="" style="endArrow=none;html=1;rounded=0;entryX=0.029;entryY=0.4;entryDx=0;entryDy=0;entryPerimeter=0;exitX=0.941;exitY=0.9;exitDx=0;exitDy=0;exitPerimeter=0;" edge="1" parent="1" source="E2-PqrP5FAS56MEpSENr-36" target="E2-PqrP5FAS56MEpSENr-38">
          <mxGeometry relative="1" as="geometry">
            <mxPoint x="770" y="390" as="sourcePoint" />
            <mxPoint x="930" y="390" as="targetPoint" />
          </mxGeometry>
        </mxCell>
        <mxCell id="E2-PqrP5FAS56MEpSENr-40" value="" style="endArrow=none;html=1;rounded=0;entryX=0;entryY=0.5;entryDx=0;entryDy=0;exitX=0.635;exitY=0.1;exitDx=0;exitDy=0;exitPerimeter=0;" edge="1" parent="1" source="E2-PqrP5FAS56MEpSENr-36" target="E2-PqrP5FAS56MEpSENr-37">
          <mxGeometry relative="1" as="geometry">
            <mxPoint x="770" y="390" as="sourcePoint" />
            <mxPoint x="930" y="390" as="targetPoint" />
          </mxGeometry>
        </mxCell>
        <mxCell id="E2-PqrP5FAS56MEpSENr-41" value="" style="endArrow=none;html=1;rounded=0;entryX=0.5;entryY=1;entryDx=0;entryDy=0;exitX=0.2;exitY=0.05;exitDx=0;exitDy=0;exitPerimeter=0;" edge="1" parent="1" source="E2-PqrP5FAS56MEpSENr-18" target="E2-PqrP5FAS56MEpSENr-34">
          <mxGeometry relative="1" as="geometry">
            <mxPoint x="770" y="390" as="sourcePoint" />
            <mxPoint x="930" y="390" as="targetPoint" />
          </mxGeometry>
        </mxCell>
        <mxCell id="E2-PqrP5FAS56MEpSENr-42" value="n" style="resizable=0;html=1;whiteSpace=wrap;align=right;verticalAlign=bottom;" connectable="0" vertex="1" parent="E2-PqrP5FAS56MEpSENr-41">
          <mxGeometry x="1" relative="1" as="geometry">
            <mxPoint y="15" as="offset" />
          </mxGeometry>
        </mxCell>
        <mxCell id="E2-PqrP5FAS56MEpSENr-43" value="" style="endArrow=none;html=1;rounded=0;exitX=1;exitY=0.5;exitDx=0;exitDy=0;entryX=0;entryY=0.5;entryDx=0;entryDy=0;" edge="1" parent="1" source="E2-PqrP5FAS56MEpSENr-34" target="E2-PqrP5FAS56MEpSENr-36">
          <mxGeometry relative="1" as="geometry">
            <mxPoint x="770" y="390" as="sourcePoint" />
            <mxPoint x="930" y="390" as="targetPoint" />
          </mxGeometry>
        </mxCell>
        <mxCell id="E2-PqrP5FAS56MEpSENr-44" value="M" style="resizable=0;html=1;whiteSpace=wrap;align=left;verticalAlign=bottom;" connectable="0" vertex="1" parent="E2-PqrP5FAS56MEpSENr-43">
          <mxGeometry x="-1" relative="1" as="geometry" />
        </mxCell>
        <mxCell id="E2-PqrP5FAS56MEpSENr-45" value="" style="resizable=0;html=1;whiteSpace=wrap;align=right;verticalAlign=bottom;" connectable="0" vertex="1" parent="E2-PqrP5FAS56MEpSENr-43">
          <mxGeometry x="1" relative="1" as="geometry" />
        </mxCell>
        <mxCell id="E2-PqrP5FAS56MEpSENr-47" value="biografia" style="ellipse;whiteSpace=wrap;html=1;align=center;fontSize=19;" vertex="1" parent="1">
          <mxGeometry x="780" y="770" width="130" height="50" as="geometry" />
        </mxCell>
        <mxCell id="E2-PqrP5FAS56MEpSENr-49" value="" style="endArrow=none;html=1;rounded=0;entryX=0.415;entryY=-0.06;entryDx=0;entryDy=0;entryPerimeter=0;" edge="1" parent="1" target="E2-PqrP5FAS56MEpSENr-47">
          <mxGeometry relative="1" as="geometry">
            <mxPoint x="770" y="490" as="sourcePoint" />
            <mxPoint x="930" y="490" as="targetPoint" />
          </mxGeometry>
        </mxCell>
        <mxCell id="E2-PqrP5FAS56MEpSENr-51" value="&lt;span style=&quot;font-size: 19px;&quot;&gt;tienen&lt;/span&gt;" style="shape=rhombus;perimeter=rhombusPerimeter;whiteSpace=wrap;html=1;align=center;" vertex="1" parent="1">
          <mxGeometry x="350" y="740" width="144" height="80" as="geometry" />
        </mxCell>
        <mxCell id="E2-PqrP5FAS56MEpSENr-53" value="" style="endArrow=none;html=1;rounded=0;entryX=0.5;entryY=0;entryDx=0;entryDy=0;exitX=0.807;exitY=1.017;exitDx=0;exitDy=0;exitPerimeter=0;" edge="1" parent="1" source="E2-PqrP5FAS56MEpSENr-1" target="E2-PqrP5FAS56MEpSENr-51">
          <mxGeometry relative="1" as="geometry">
            <mxPoint x="240" y="590" as="sourcePoint" />
            <mxPoint x="400" y="590" as="targetPoint" />
          </mxGeometry>
        </mxCell>
        <mxCell id="E2-PqrP5FAS56MEpSENr-54" value="1" style="resizable=0;html=1;whiteSpace=wrap;align=right;verticalAlign=bottom;" connectable="0" vertex="1" parent="E2-PqrP5FAS56MEpSENr-53">
          <mxGeometry x="1" relative="1" as="geometry" />
        </mxCell>
        <mxCell id="E2-PqrP5FAS56MEpSENr-55" value="" style="endArrow=none;html=1;rounded=0;exitX=0.5;exitY=1;exitDx=0;exitDy=0;" edge="1" parent="1" source="E2-PqrP5FAS56MEpSENr-51" target="E2-PqrP5FAS56MEpSENr-58">
          <mxGeometry relative="1" as="geometry">
            <mxPoint x="240" y="590" as="sourcePoint" />
            <mxPoint x="422" y="950" as="targetPoint" />
          </mxGeometry>
        </mxCell>
        <mxCell id="E2-PqrP5FAS56MEpSENr-56" value="M" style="resizable=0;html=1;whiteSpace=wrap;align=left;verticalAlign=bottom;" connectable="0" vertex="1" parent="E2-PqrP5FAS56MEpSENr-55">
          <mxGeometry x="-1" relative="1" as="geometry" />
        </mxCell>
        <mxCell id="E2-PqrP5FAS56MEpSENr-116" style="edgeStyle=orthogonalEdgeStyle;rounded=0;orthogonalLoop=1;jettySize=auto;html=1;exitX=0;exitY=0.25;exitDx=0;exitDy=0;" edge="1" parent="1" source="E2-PqrP5FAS56MEpSENr-58">
          <mxGeometry relative="1" as="geometry">
            <mxPoint x="359.9411764705883" y="1002.4117647058824" as="targetPoint" />
          </mxGeometry>
        </mxCell>
        <mxCell id="E2-PqrP5FAS56MEpSENr-58" value="&lt;span style=&quot;font-size: 19px;&quot;&gt;ejemplares&lt;/span&gt;" style="shape=ext;margin=3;double=1;whiteSpace=wrap;html=1;align=center;" vertex="1" parent="1">
          <mxGeometry x="360" y="990" width="130" height="50" as="geometry" />
        </mxCell>
        <mxCell id="E2-PqrP5FAS56MEpSENr-61" value="&lt;span style=&quot;font-size: 19px;&quot;&gt;codEjemplar&lt;/span&gt;" style="ellipse;whiteSpace=wrap;html=1;align=center;fontStyle=4;" vertex="1" parent="1">
          <mxGeometry x="180" y="1119" width="135" height="51" as="geometry" />
        </mxCell>
        <mxCell id="E2-PqrP5FAS56MEpSENr-62" value="" style="endArrow=none;html=1;rounded=0;exitX=0.917;exitY=0.22;exitDx=0;exitDy=0;exitPerimeter=0;entryX=0.023;entryY=0.64;entryDx=0;entryDy=0;entryPerimeter=0;" edge="1" parent="1" source="E2-PqrP5FAS56MEpSENr-61" target="E2-PqrP5FAS56MEpSENr-58">
          <mxGeometry relative="1" as="geometry">
            <mxPoint x="240" y="880" as="sourcePoint" />
            <mxPoint x="400" y="880" as="targetPoint" />
          </mxGeometry>
        </mxCell>
        <mxCell id="E2-PqrP5FAS56MEpSENr-63" value="fechaDevoluci" style="ellipse;whiteSpace=wrap;html=1;align=center;fontSize=19;" vertex="1" parent="1">
          <mxGeometry x="380" y="1300" width="140" height="50" as="geometry" />
        </mxCell>
        <mxCell id="E2-PqrP5FAS56MEpSENr-64" value="fechaPrestamo" style="ellipse;whiteSpace=wrap;html=1;align=center;fontSize=19;" vertex="1" parent="1">
          <mxGeometry x="710" y="1260" width="140" height="50" as="geometry" />
        </mxCell>
        <mxCell id="E2-PqrP5FAS56MEpSENr-65" value="ubicacion" style="ellipse;whiteSpace=wrap;html=1;align=center;fontSize=19;" vertex="1" parent="1">
          <mxGeometry x="60" y="1010" width="120" height="50" as="geometry" />
        </mxCell>
        <mxCell id="E2-PqrP5FAS56MEpSENr-66" value="" style="endArrow=none;html=1;rounded=0;entryX=0.164;entryY=0.674;entryDx=0;entryDy=0;entryPerimeter=0;" edge="1" parent="1" source="E2-PqrP5FAS56MEpSENr-63" target="E2-PqrP5FAS56MEpSENr-69">
          <mxGeometry relative="1" as="geometry">
            <mxPoint x="240" y="780" as="sourcePoint" />
            <mxPoint x="400" y="780" as="targetPoint" />
            <Array as="points">
              <mxPoint x="620" y="1080" />
            </Array>
          </mxGeometry>
        </mxCell>
        <mxCell id="E2-PqrP5FAS56MEpSENr-67" value="" style="endArrow=none;html=1;rounded=0;exitX=1;exitY=0.5;exitDx=0;exitDy=0;" edge="1" parent="1" source="E2-PqrP5FAS56MEpSENr-64" target="E2-PqrP5FAS56MEpSENr-69">
          <mxGeometry relative="1" as="geometry">
            <mxPoint x="240" y="780" as="sourcePoint" />
            <mxPoint x="400" y="780" as="targetPoint" />
          </mxGeometry>
        </mxCell>
        <mxCell id="E2-PqrP5FAS56MEpSENr-68" value="" style="endArrow=none;html=1;rounded=0;exitX=0.942;exitY=0.26;exitDx=0;exitDy=0;exitPerimeter=0;entryX=0;entryY=0.5;entryDx=0;entryDy=0;" edge="1" parent="1" source="E2-PqrP5FAS56MEpSENr-65" target="E2-PqrP5FAS56MEpSENr-58">
          <mxGeometry relative="1" as="geometry">
            <mxPoint x="240" y="780" as="sourcePoint" />
            <mxPoint x="400" y="780" as="targetPoint" />
          </mxGeometry>
        </mxCell>
        <mxCell id="E2-PqrP5FAS56MEpSENr-69" value="&lt;span style=&quot;font-size: 19px;&quot;&gt;alquilan&lt;/span&gt;" style="shape=rhombus;perimeter=rhombusPerimeter;whiteSpace=wrap;html=1;align=center;" vertex="1" parent="1">
          <mxGeometry x="620" y="970" width="150" height="90" as="geometry" />
        </mxCell>
        <mxCell id="E2-PqrP5FAS56MEpSENr-70" value="" style="endArrow=none;html=1;rounded=0;exitX=0;exitY=0.5;exitDx=0;exitDy=0;entryX=1;entryY=0.5;entryDx=0;entryDy=0;" edge="1" parent="1" source="E2-PqrP5FAS56MEpSENr-69" target="E2-PqrP5FAS56MEpSENr-58">
          <mxGeometry relative="1" as="geometry">
            <mxPoint x="520" y="810" as="sourcePoint" />
            <mxPoint x="523" y="980" as="targetPoint" />
          </mxGeometry>
        </mxCell>
        <mxCell id="E2-PqrP5FAS56MEpSENr-71" value="N" style="resizable=0;html=1;whiteSpace=wrap;align=left;verticalAlign=bottom;" connectable="0" vertex="1" parent="E2-PqrP5FAS56MEpSENr-70">
          <mxGeometry x="-1" relative="1" as="geometry">
            <mxPoint x="-6" as="offset" />
          </mxGeometry>
        </mxCell>
        <mxCell id="E2-PqrP5FAS56MEpSENr-72" value="" style="endArrow=none;html=1;rounded=0;entryX=0.5;entryY=0;entryDx=0;entryDy=0;exitX=0.807;exitY=1.017;exitDx=0;exitDy=0;exitPerimeter=0;" edge="1" parent="1" source="E2-PqrP5FAS56MEpSENr-1" target="E2-PqrP5FAS56MEpSENr-51">
          <mxGeometry relative="1" as="geometry">
            <mxPoint x="423" y="491" as="sourcePoint" />
            <mxPoint x="422" y="740" as="targetPoint" />
            <Array as="points">
              <mxPoint x="422" y="650" />
            </Array>
          </mxGeometry>
        </mxCell>
        <mxCell id="E2-PqrP5FAS56MEpSENr-73" value="1" style="resizable=0;html=1;whiteSpace=wrap;align=right;verticalAlign=bottom;" connectable="0" vertex="1" parent="E2-PqrP5FAS56MEpSENr-72">
          <mxGeometry x="1" relative="1" as="geometry" />
        </mxCell>
        <mxCell id="E2-PqrP5FAS56MEpSENr-76" value="" style="endArrow=none;html=1;rounded=0;entryX=0.947;entryY=0.502;entryDx=0;entryDy=0;entryPerimeter=0;" edge="1" parent="1" target="E2-PqrP5FAS56MEpSENr-69">
          <mxGeometry relative="1" as="geometry">
            <mxPoint x="1160" y="1020" as="sourcePoint" />
            <mxPoint x="974.47" y="1139.49" as="targetPoint" />
            <Array as="points" />
          </mxGeometry>
        </mxCell>
        <mxCell id="E2-PqrP5FAS56MEpSENr-77" value="M" style="resizable=0;html=1;whiteSpace=wrap;align=right;verticalAlign=bottom;" connectable="0" vertex="1" parent="E2-PqrP5FAS56MEpSENr-76">
          <mxGeometry x="1" relative="1" as="geometry">
            <mxPoint x="14" as="offset" />
          </mxGeometry>
        </mxCell>
        <mxCell id="E2-PqrP5FAS56MEpSENr-79" value="&lt;span style=&quot;font-size: 19px;&quot;&gt;socios&lt;/span&gt;" style="whiteSpace=wrap;html=1;align=center;" vertex="1" parent="1">
          <mxGeometry x="1160" y="990" width="140" height="60" as="geometry" />
        </mxCell>
        <mxCell id="E2-PqrP5FAS56MEpSENr-80" value="codSocio" style="ellipse;whiteSpace=wrap;html=1;align=center;fontStyle=4;fontSize=19;" vertex="1" parent="1">
          <mxGeometry x="1250" y="587.5" width="150" height="70" as="geometry" />
        </mxCell>
        <mxCell id="E2-PqrP5FAS56MEpSENr-81" value="direccion" style="ellipse;whiteSpace=wrap;html=1;align=center;fontSize=19;" vertex="1" parent="1">
          <mxGeometry x="1490" y="1180" width="150" height="65" as="geometry" />
        </mxCell>
        <mxCell id="E2-PqrP5FAS56MEpSENr-83" value="apellidos" style="ellipse;whiteSpace=wrap;html=1;align=center;fontSize=19;" vertex="1" parent="1">
          <mxGeometry x="1650" y="982.5" width="150" height="65" as="geometry" />
        </mxCell>
        <mxCell id="E2-PqrP5FAS56MEpSENr-84" value="dni" style="ellipse;whiteSpace=wrap;html=1;align=center;fontSize=19;" vertex="1" parent="1">
          <mxGeometry x="1590" y="590" width="150" height="65" as="geometry" />
        </mxCell>
        <mxCell id="E2-PqrP5FAS56MEpSENr-86" value="nombre" style="ellipse;whiteSpace=wrap;html=1;align=center;fontSize=19;" vertex="1" parent="1">
          <mxGeometry x="1650" y="770" width="150" height="65" as="geometry" />
        </mxCell>
        <mxCell id="E2-PqrP5FAS56MEpSENr-88" value="" style="endArrow=none;html=1;rounded=0;entryX=0;entryY=0;entryDx=0;entryDy=0;exitX=0.75;exitY=1;exitDx=0;exitDy=0;" edge="1" parent="1" source="E2-PqrP5FAS56MEpSENr-79" target="E2-PqrP5FAS56MEpSENr-81">
          <mxGeometry relative="1" as="geometry">
            <mxPoint x="1070" y="1150" as="sourcePoint" />
            <mxPoint x="1230" y="1150" as="targetPoint" />
          </mxGeometry>
        </mxCell>
        <mxCell id="E2-PqrP5FAS56MEpSENr-89" value="" style="endArrow=none;html=1;rounded=0;exitX=1;exitY=0.25;exitDx=0;exitDy=0;" edge="1" parent="1" source="E2-PqrP5FAS56MEpSENr-79" target="E2-PqrP5FAS56MEpSENr-86">
          <mxGeometry relative="1" as="geometry">
            <mxPoint x="1320" y="1100" as="sourcePoint" />
            <mxPoint x="1480" y="1100" as="targetPoint" />
          </mxGeometry>
        </mxCell>
        <mxCell id="E2-PqrP5FAS56MEpSENr-90" value="" style="endArrow=none;html=1;rounded=0;exitX=0;exitY=1;exitDx=0;exitDy=0;" edge="1" parent="1" source="E2-PqrP5FAS56MEpSENr-84" target="E2-PqrP5FAS56MEpSENr-79">
          <mxGeometry relative="1" as="geometry">
            <mxPoint x="1550" y="1100" as="sourcePoint" />
            <mxPoint x="1710" y="1100" as="targetPoint" />
          </mxGeometry>
        </mxCell>
        <mxCell id="E2-PqrP5FAS56MEpSENr-91" value="" style="endArrow=none;html=1;rounded=0;exitX=1;exitY=0.5;exitDx=0;exitDy=0;entryX=0;entryY=0.5;entryDx=0;entryDy=0;" edge="1" parent="1" source="E2-PqrP5FAS56MEpSENr-79" target="E2-PqrP5FAS56MEpSENr-83">
          <mxGeometry relative="1" as="geometry">
            <mxPoint x="1300" y="1150" as="sourcePoint" />
            <mxPoint x="1460" y="1150" as="targetPoint" />
          </mxGeometry>
        </mxCell>
        <mxCell id="E2-PqrP5FAS56MEpSENr-95" value="" style="endArrow=none;html=1;rounded=0;exitX=0.5;exitY=1;exitDx=0;exitDy=0;entryX=0.25;entryY=0;entryDx=0;entryDy=0;" edge="1" parent="1" source="E2-PqrP5FAS56MEpSENr-80" target="E2-PqrP5FAS56MEpSENr-79">
          <mxGeometry relative="1" as="geometry">
            <mxPoint x="840" y="1080" as="sourcePoint" />
            <mxPoint x="1000" y="1080" as="targetPoint" />
          </mxGeometry>
        </mxCell>
        <mxCell id="E2-PqrP5FAS56MEpSENr-96" value="&lt;font style=&quot;font-size: 19px;&quot;&gt;Escriben&lt;/font&gt;" style="shape=rhombus;perimeter=rhombusPerimeter;whiteSpace=wrap;html=1;align=center;" vertex="1" parent="1">
          <mxGeometry x="520" y="415" width="120" height="90" as="geometry" />
        </mxCell>
        <mxCell id="E2-PqrP5FAS56MEpSENr-97" value="" style="endArrow=none;html=1;rounded=0;exitX=0;exitY=0.5;exitDx=0;exitDy=0;entryX=1;entryY=0.5;entryDx=0;entryDy=0;" edge="1" parent="1" source="E2-PqrP5FAS56MEpSENr-96" target="E2-PqrP5FAS56MEpSENr-1">
          <mxGeometry relative="1" as="geometry">
            <mxPoint x="487.38" y="812.5" as="sourcePoint" />
            <mxPoint x="490.38" y="982.5" as="targetPoint" />
          </mxGeometry>
        </mxCell>
        <mxCell id="E2-PqrP5FAS56MEpSENr-98" value="M" style="resizable=0;html=1;whiteSpace=wrap;align=left;verticalAlign=bottom;" connectable="0" vertex="1" parent="E2-PqrP5FAS56MEpSENr-97">
          <mxGeometry x="-1" relative="1" as="geometry" />
        </mxCell>
        <mxCell id="E2-PqrP5FAS56MEpSENr-99" value="" style="endArrow=none;html=1;rounded=0;entryX=1;entryY=0.5;entryDx=0;entryDy=0;" edge="1" parent="1" source="E2-PqrP5FAS56MEpSENr-18" target="E2-PqrP5FAS56MEpSENr-96">
          <mxGeometry relative="1" as="geometry">
            <mxPoint x="550" y="790" as="sourcePoint" />
            <mxPoint x="710" y="790" as="targetPoint" />
          </mxGeometry>
        </mxCell>
        <mxCell id="E2-PqrP5FAS56MEpSENr-100" value="N" style="resizable=0;html=1;whiteSpace=wrap;align=right;verticalAlign=bottom;" connectable="0" vertex="1" parent="E2-PqrP5FAS56MEpSENr-99">
          <mxGeometry x="1" relative="1" as="geometry" />
        </mxCell>
        <mxCell id="E2-PqrP5FAS56MEpSENr-102" value="&lt;font style=&quot;font-size: 19px;&quot;&gt;Tienen&lt;/font&gt;" style="shape=rhombus;perimeter=rhombusPerimeter;whiteSpace=wrap;html=1;align=center;" vertex="1" parent="1">
          <mxGeometry x="1145" y="1260" width="170" height="100" as="geometry" />
        </mxCell>
        <mxCell id="E2-PqrP5FAS56MEpSENr-103" value="" style="endArrow=none;html=1;rounded=0;entryX=0.5;entryY=0;entryDx=0;entryDy=0;exitX=0.5;exitY=1;exitDx=0;exitDy=0;" edge="1" parent="1" source="E2-PqrP5FAS56MEpSENr-79" target="E2-PqrP5FAS56MEpSENr-102">
          <mxGeometry relative="1" as="geometry">
            <mxPoint x="1160" y="1144.82" as="sourcePoint" />
            <mxPoint x="762" y="1139.82" as="targetPoint" />
            <Array as="points" />
          </mxGeometry>
        </mxCell>
        <mxCell id="E2-PqrP5FAS56MEpSENr-104" value="M" style="resizable=0;html=1;whiteSpace=wrap;align=right;verticalAlign=bottom;" connectable="0" vertex="1" parent="E2-PqrP5FAS56MEpSENr-103">
          <mxGeometry x="1" relative="1" as="geometry" />
        </mxCell>
        <mxCell id="E2-PqrP5FAS56MEpSENr-105" value="" style="endArrow=none;html=1;rounded=0;exitX=0.5;exitY=1;exitDx=0;exitDy=0;" edge="1" parent="1" source="E2-PqrP5FAS56MEpSENr-102" target="E2-PqrP5FAS56MEpSENr-107">
          <mxGeometry relative="1" as="geometry">
            <mxPoint x="1030" y="1590" as="sourcePoint" />
            <mxPoint x="1230" y="1560" as="targetPoint" />
          </mxGeometry>
        </mxCell>
        <mxCell id="E2-PqrP5FAS56MEpSENr-106" value="N" style="resizable=0;html=1;whiteSpace=wrap;align=left;verticalAlign=bottom;" connectable="0" vertex="1" parent="E2-PqrP5FAS56MEpSENr-105">
          <mxGeometry x="-1" relative="1" as="geometry">
            <mxPoint y="14" as="offset" />
          </mxGeometry>
        </mxCell>
        <mxCell id="E2-PqrP5FAS56MEpSENr-107" value="&lt;span style=&quot;font-size: 19px;&quot;&gt;telefonos&lt;/span&gt;" style="shape=ext;margin=3;double=1;whiteSpace=wrap;html=1;align=center;" vertex="1" parent="1">
          <mxGeometry x="1150" y="1540" width="160" height="70" as="geometry" />
        </mxCell>
        <mxCell id="E2-PqrP5FAS56MEpSENr-108" value="" style="endArrow=none;html=1;rounded=0;exitX=0.125;exitY=1;exitDx=0;exitDy=0;exitPerimeter=0;" edge="1" parent="1" source="E2-PqrP5FAS56MEpSENr-107">
          <mxGeometry relative="1" as="geometry">
            <mxPoint x="1170" y="1600" as="sourcePoint" />
            <mxPoint x="1080" y="1780" as="targetPoint" />
          </mxGeometry>
        </mxCell>
        <mxCell id="E2-PqrP5FAS56MEpSENr-109" value="" style="endArrow=none;html=1;rounded=0;exitX=0.125;exitY=1;exitDx=0;exitDy=0;exitPerimeter=0;entryX=0.59;entryY=-0.045;entryDx=0;entryDy=0;entryPerimeter=0;" edge="1" parent="1" source="E2-PqrP5FAS56MEpSENr-107" target="E2-PqrP5FAS56MEpSENr-112">
          <mxGeometry relative="1" as="geometry">
            <mxPoint x="1170" y="1610" as="sourcePoint" />
            <mxPoint x="1080" y="1780" as="targetPoint" />
            <Array as="points">
              <mxPoint x="1120" y="1700" />
            </Array>
          </mxGeometry>
        </mxCell>
        <mxCell id="E2-PqrP5FAS56MEpSENr-111" value="" style="endArrow=none;html=1;rounded=0;entryX=0.938;entryY=1.057;entryDx=0;entryDy=0;entryPerimeter=0;exitX=0.34;exitY=-0.024;exitDx=0;exitDy=0;exitPerimeter=0;" edge="1" parent="1" source="E2-PqrP5FAS56MEpSENr-113" target="E2-PqrP5FAS56MEpSENr-107">
          <mxGeometry relative="1" as="geometry">
            <mxPoint x="1380" y="1790" as="sourcePoint" />
            <mxPoint x="1330" y="1600" as="targetPoint" />
          </mxGeometry>
        </mxCell>
        <mxCell id="E2-PqrP5FAS56MEpSENr-112" value="&lt;span style=&quot;font-size: 19px;&quot;&gt;telefono1&lt;/span&gt;" style="ellipse;whiteSpace=wrap;html=1;align=center;" vertex="1" parent="1">
          <mxGeometry x="960" y="1820" width="160" height="70" as="geometry" />
        </mxCell>
        <mxCell id="E2-PqrP5FAS56MEpSENr-113" value="&lt;span style=&quot;font-size: 19px;&quot;&gt;telefono2&lt;/span&gt;" style="ellipse;whiteSpace=wrap;html=1;align=center;" vertex="1" parent="1">
          <mxGeometry x="1350" y="1830" width="160" height="70" as="geometry" />
        </mxCell>
        <mxCell id="E2-PqrP5FAS56MEpSENr-114" value="&lt;span style=&quot;font-size: 19px;&quot;&gt;codTelefono&lt;/span&gt;" style="ellipse;whiteSpace=wrap;html=1;align=center;fontStyle=4;" vertex="1" parent="1">
          <mxGeometry x="1520" y="1547.5" width="140" height="55" as="geometry" />
        </mxCell>
        <mxCell id="E2-PqrP5FAS56MEpSENr-115" value="" style="endArrow=none;html=1;rounded=0;entryX=1;entryY=0.5;entryDx=0;entryDy=0;exitX=0;exitY=0.5;exitDx=0;exitDy=0;" edge="1" parent="1" source="E2-PqrP5FAS56MEpSENr-114" target="E2-PqrP5FAS56MEpSENr-107">
          <mxGeometry relative="1" as="geometry">
            <mxPoint x="1481.76" y="1753.01" as="sourcePoint" />
            <mxPoint x="1377.76" y="1539.01" as="targetPoint" />
          </mxGeometry>
        </mxCell>
      </root>
    </mxGraphModel>
  </diagram>
</mxfile>
